G04 Layer: BottomSilkLayer*
G04 EasyEDA v6.4.3, 2020-08-16T09:55:44+08:00*
G04 81dc946ae44a44bf806acedbfbfd66cd,06d3987d76a94bb6b6563c12ef58ecb4,10*
G04 Gerber Generator version 0.2*
G04 Scale: 100 percent, Rotated: No, Reflected: No *
G04 Dimensions in inches *
G04 leading zeros omitted , absolute positions ,2 integer and 4 decimal *
%FSLAX24Y24*%
%MOIN*%
G90*
G70D02*

%ADD11C,0.010000*%
%ADD46C,0.007874*%
%ADD57C,0.006000*%

%LPD*%
G54D11*
G01X12438Y28535D02*
G01X12438Y29164D01*
G01X11061Y28535D02*
G01X11061Y29164D01*
G01X11946Y29259D02*
G01X12360Y29259D01*
G01X11946Y28440D02*
G01X12360Y28440D01*
G01X11553Y29259D02*
G01X11139Y29259D01*
G01X11553Y28440D02*
G01X11139Y28440D01*
G01X11061Y28527D02*
G01X11061Y28535D01*
G01X11061Y28519D02*
G01X11061Y28535D01*
G01X11061Y29180D02*
G01X11061Y29164D01*
G01X12438Y28519D02*
G01X12438Y28535D01*
G01X12438Y29180D02*
G01X12438Y29164D01*
G54D46*
G01X6457Y27484D02*
G01X6890Y27484D01*
G01X6890Y28115D01*
G01X6457Y28115D01*
G01X6142Y27484D02*
G01X5709Y27484D01*
G01X5709Y27878D01*
G01X5709Y28115D01*
G01X6142Y28115D01*
G54D57*
G01X12013Y27998D02*
G01X11992Y27957D01*
G01X11951Y27915D01*
G01X11911Y27896D01*
G01X11829Y27896D01*
G01X11788Y27915D01*
G01X11747Y27957D01*
G01X11726Y27998D01*
G01X11706Y28059D01*
G01X11706Y28161D01*
G01X11726Y28223D01*
G01X11747Y28263D01*
G01X11788Y28305D01*
G01X11829Y28325D01*
G01X11911Y28325D01*
G01X11951Y28305D01*
G01X11992Y28263D01*
G01X12013Y28223D01*
G01X12414Y28038D02*
G01X12393Y28100D01*
G01X12352Y28140D01*
G01X12291Y28161D01*
G01X12271Y28161D01*
G01X12209Y28140D01*
G01X12168Y28100D01*
G01X12148Y28038D01*
G01X12148Y28019D01*
G01X12168Y27957D01*
G01X12209Y27915D01*
G01X12271Y27896D01*
G01X12291Y27896D01*
G01X12352Y27915D01*
G01X12393Y27957D01*
G01X12414Y28038D01*
G01X12414Y28140D01*
G01X12393Y28244D01*
G01X12352Y28305D01*
G01X12291Y28325D01*
G01X12250Y28325D01*
G01X12189Y28305D01*
G01X12168Y28263D01*
G01X6150Y26946D02*
G01X6150Y27375D01*
G01X6150Y26946D02*
G01X6334Y26946D01*
G01X6394Y26965D01*
G01X6415Y26986D01*
G01X6435Y27028D01*
G01X6435Y27069D01*
G01X6415Y27109D01*
G01X6394Y27130D01*
G01X6334Y27150D01*
G01X6150Y27150D01*
G01X6293Y27150D02*
G01X6435Y27375D01*
G01X6776Y26946D02*
G01X6571Y27232D01*
G01X6877Y27232D01*
G01X6776Y26946D02*
G01X6776Y27375D01*
G54D11*
G75*
G01X11140Y28441D02*
G02X11061Y28519I0J78D01*
G01*
G75*
G01X11140Y29259D02*
G03X11061Y29181I0J-78D01*
G01*
G75*
G01X12360Y28441D02*
G03X12439Y28519I0J78D01*
G01*
G75*
G01X12360Y29259D02*
G02X12439Y29181I0J-78D01*
G01*
M00*
M02*
