;Layer: Drill PTH
;EasyEDA v6.4.3, 2020-08-16T09:55:44+08:00
;81dc946ae44a44bf806acedbfbfd66cd,06d3987d76a94bb6b6563c12ef58ecb4,10
;Gerber Generator version 0.2
M48
INCH,LZ,00.0000
;Holesize 1 = 0.012 INCH
T01C0.012
;Holesize 2 = 0.018 INCH
T02C0.018
;Holesize 3 = 0.028 INCH
T03C0.028
;Holesize 4 = 0.030 INCH
T04C0.030
;Holesize 5 = 0.032 INCH
T05C0.032
;Holesize 6 = 0.035 INCH
T06C0.035
;Holesize 7 = 0.036 INCH
T07C0.036
;Holesize 8 = 0.039 INCH
T08C0.039
;Holesize 9 = 0.040 INCH
T09C0.040
;Holesize 10 = 0.043 INCH
T10C0.043
;Holesize 11 = 0.047 INCH
T11C0.047
;Holesize 12 = 0.051 INCH
T12C0.051
;Holesize 13 = 0.055 INCH
T13C0.055
;Holesize 14 = 0.059 INCH
T14C0.059
;Holesize 15 = 0.067 INCH
T15C0.067
%
G05
G90
T01
X+008650Y+026700
X+009350Y+026700
X+008850Y+027050
X+008850Y+027650
X+008850Y+026400
X+012087Y+028850
X+006000Y+025800
X+006600Y+027800
X+006950Y+025800
X+006000Y+027785
X+008900Y+028600
X+008800Y+028300
X+006050Y+024000
X+014300Y+028350
X+010500Y+026900
X+013450Y+026100
X+011800Y+025600
X+016700Y+028350
T02
X+011350Y+030400
T03
X+009650Y+021350
X+009650Y+022350
X+011650Y+021300
X+011650Y+022300
X+015150Y+029150
X+016150Y+029150
T04
X+021700Y+022996
X+021700Y+021996
X+021700Y+024003
T05
X+017895Y+018250
X+017304Y+018250
X+007800Y+020704
X+007800Y+021295
T06
X+014600Y+020850
X+015600Y+020850
X+016600Y+020850
X+017600Y+020850
X+014600Y+023850
X+015600Y+023850
X+016600Y+023850
X+017600Y+023850
X+009639Y+024100
X+011560Y+024100
T07
X+023500Y+019400
X+023500Y+020400
X+023500Y+021400
X+023500Y+022400
X+023500Y+023400
X+023500Y+024400
X+023500Y+025400
X+023500Y+026400
X+023500Y+027400
X+023500Y+028400
X+023500Y+029400
X+023500Y+030400
X+023500Y+031400
X+023500Y+032400
X+023500Y+033400
X+023500Y+034400
T08
X+014100Y+004100
X+005400Y+004100
X+012100Y+017900
X+013100Y+017900
X+007300Y+017900
X+006300Y+017900
X+021100Y+007500
X+021100Y+008500
T09
X+008100Y+032200
X+008100Y+031200
X+007100Y+032200
X+007100Y+031200
X+006100Y+032200
X+006100Y+031200
T10
X+003900Y+022400
X+003900Y+023400
X+003900Y+024400
X+003900Y+025400
X+003900Y+026400
T11
X+014200Y+032700
X+015200Y+032700
X+016200Y+032700
X+017200Y+032700
X+007450Y+011750
X+005450Y+011750
X+013950Y+011700
X+011950Y+011700
X+013200Y+022400
X+013200Y+021400
X+013200Y+020400
X+011000Y+032700
X+012000Y+032700
T12
X+019150Y+022800
X+019150Y+021800
T13
X+007650Y+015600
X+005650Y+015600
X+006650Y+015600
X+014050Y+015600
X+012050Y+015600
X+013050Y+015600
X+017550Y+009550
X+017550Y+007550
X+017550Y+008550
X+014789Y+008250
X+010773Y+008250
X+007742Y+008250
X+004710Y+008250
T14
X+023750Y+014901G85X+023750Y+014898
X+022175Y+016475G85X+022175Y+016473
X+025324Y+016475G85X+025324Y+016473
X+022175Y+013326G85X+022175Y+013324
X+025324Y+013326G85X+025324Y+013324
T15
X+002050Y+002350
X+002050Y+004317
X+002050Y+006350
M30
