G04 Layer: TopSolderMaskLayer*
G04 EasyEDA v6.4.3, 2020-08-16T09:55:44+08:00*
G04 81dc946ae44a44bf806acedbfbfd66cd,06d3987d76a94bb6b6563c12ef58ecb4,10*
G04 Gerber Generator version 0.2*
G04 Scale: 100 percent, Rotated: No, Reflected: No *
G04 Dimensions in inches *
G04 leading zeros omitted , absolute positions ,2 integer and 4 decimal *
%FSLAX24Y24*%
%MOIN*%
G90*
G70D02*

%ADD58C,0.086740*%
%ADD59C,0.025717*%
%ADD62C,0.068000*%
%ADD64C,0.126110*%
%ADD67C,0.078866*%
%ADD69C,0.072300*%
%ADD72C,0.074929*%
%ADD74R,0.067000X0.067000*%
%ADD75C,0.067000*%
%ADD76C,0.055000*%
%ADD79C,0.082803*%
%ADD80C,0.094614*%
%ADD81C,0.070992*%
%ADD82C,0.055244*%
%ADD85C,0.067055*%

%LPD*%
G54D58*
G01X5650Y15501D02*
G01X5650Y15698D01*
G01X6650Y15501D02*
G01X6650Y15698D01*
G54D59*
G01X5138Y26400D02*
G01X5611Y26400D01*
G01X5138Y26715D02*
G01X5611Y26715D01*
G01X5138Y27030D02*
G01X5611Y27030D01*
G01X5138Y27344D02*
G01X5611Y27344D01*
G01X5138Y27659D02*
G01X5611Y27659D01*
G01X5138Y27973D02*
G01X5611Y27973D01*
G01X5138Y28288D02*
G01X5611Y28288D01*
G01X5138Y28603D02*
G01X5611Y28603D01*
G01X5994Y28983D02*
G01X5994Y29456D01*
G01X6310Y28983D02*
G01X6310Y29456D01*
G01X6625Y28983D02*
G01X6625Y29456D01*
G01X6939Y28983D02*
G01X6939Y29456D01*
G01X7253Y28983D02*
G01X7253Y29456D01*
G01X7568Y28983D02*
G01X7568Y29456D01*
G01X7884Y28983D02*
G01X7884Y29456D01*
G01X8198Y28983D02*
G01X8198Y29456D01*
G01X8588Y28600D02*
G01X9061Y28600D01*
G01X8588Y28284D02*
G01X9061Y28284D01*
G01X8588Y27969D02*
G01X9061Y27969D01*
G01X8588Y27655D02*
G01X9061Y27655D01*
G01X8588Y27340D02*
G01X9061Y27340D01*
G01X8588Y27026D02*
G01X9061Y27026D01*
G01X8588Y26711D02*
G01X9061Y26711D01*
G01X8588Y26396D02*
G01X9061Y26396D01*
G01X8194Y25543D02*
G01X8194Y26016D01*
G01X7880Y25543D02*
G01X7880Y26016D01*
G01X7564Y25543D02*
G01X7564Y26016D01*
G01X7250Y25543D02*
G01X7250Y26016D01*
G01X6935Y25543D02*
G01X6935Y26016D01*
G01X6621Y25543D02*
G01X6621Y26016D01*
G01X6306Y25543D02*
G01X6306Y26016D01*
G01X5990Y25543D02*
G01X5990Y26016D01*
G54D58*
G01X12050Y15501D02*
G01X12050Y15698D01*
G01X13050Y15501D02*
G01X13050Y15698D01*
G01X17648Y7550D02*
G01X17451Y7550D01*
G01X17648Y8550D02*
G01X17451Y8550D01*
G36*
G01X15806Y25455D02*
G01X15806Y26144D01*
G01X16281Y26144D01*
G01X16281Y25455D01*
G01X15806Y25455D01*
G37*
G36*
G01X15018Y25455D02*
G01X15018Y26144D01*
G01X15493Y26144D01*
G01X15493Y25455D01*
G01X15018Y25455D01*
G37*
G36*
G01X10339Y29492D02*
G01X10339Y30007D01*
G01X10811Y30007D01*
G01X10811Y29492D01*
G01X10339Y29492D01*
G37*
G36*
G01X9788Y29492D02*
G01X9788Y30007D01*
G01X10260Y30007D01*
G01X10260Y29492D01*
G01X9788Y29492D01*
G37*
G54D62*
G01X21700Y22996D03*
G01X21700Y21996D03*
G01X21700Y24003D03*
G36*
G01X7215Y15067D02*
G01X7215Y16132D01*
G01X8084Y16132D01*
G01X8084Y15067D01*
G01X7215Y15067D01*
G37*
G54D64*
G01X23750Y14900D03*
G01X22175Y16474D03*
G01X25324Y16474D03*
G01X22175Y13325D03*
G01X25324Y13325D03*
G36*
G01X14981Y33575D02*
G01X14981Y34225D01*
G01X15518Y34225D01*
G01X15518Y33575D01*
G01X14981Y33575D01*
G37*
G36*
G01X15781Y33575D02*
G01X15781Y34225D01*
G01X16318Y34225D01*
G01X16318Y33575D01*
G01X15781Y33575D01*
G37*
G01X2050Y2350D03*
G01X2050Y4317D03*
G01X2050Y6350D03*
G36*
G01X13806Y32305D02*
G01X13806Y33094D01*
G01X14593Y33094D01*
G01X14593Y32305D01*
G01X13806Y32305D01*
G37*
G54D67*
G01X15200Y32700D03*
G01X16200Y32700D03*
G01X17200Y32700D03*
G36*
G01X13615Y15067D02*
G01X13615Y16132D01*
G01X14484Y16132D01*
G01X14484Y15067D01*
G01X13615Y15067D01*
G37*
G36*
G01X7739Y31838D02*
G01X7739Y32561D01*
G01X8461Y32561D01*
G01X8461Y31838D01*
G01X7739Y31838D01*
G37*
G54D69*
G01X8100Y31200D03*
G01X7100Y32200D03*
G01X7100Y31200D03*
G01X6100Y32200D03*
G01X6100Y31200D03*
G36*
G01X14293Y28580D02*
G01X14293Y29250D01*
G01X14493Y29250D01*
G01X14493Y28580D01*
G01X14293Y28580D01*
G37*
G36*
G01X14097Y28580D02*
G01X14097Y29250D01*
G01X14297Y29250D01*
G01X14297Y28580D01*
G01X14097Y28580D01*
G37*
G36*
G01X13900Y28580D02*
G01X13900Y29250D01*
G01X14100Y29250D01*
G01X14100Y28580D01*
G01X13900Y28580D01*
G37*
G36*
G01X13702Y28580D02*
G01X13702Y29250D01*
G01X13902Y29250D01*
G01X13902Y28580D01*
G01X13702Y28580D01*
G37*
G36*
G01X13506Y28580D02*
G01X13506Y29250D01*
G01X13706Y29250D01*
G01X13706Y28580D01*
G01X13506Y28580D01*
G37*
G36*
G01X13506Y26650D02*
G01X13506Y27319D01*
G01X13706Y27319D01*
G01X13706Y26650D01*
G01X13506Y26650D01*
G37*
G36*
G01X13702Y26650D02*
G01X13702Y27319D01*
G01X13902Y27319D01*
G01X13902Y26650D01*
G01X13702Y26650D01*
G37*
G36*
G01X13900Y26650D02*
G01X13900Y27319D01*
G01X14100Y27319D01*
G01X14100Y26650D01*
G01X13900Y26650D01*
G37*
G36*
G01X14097Y26650D02*
G01X14097Y27319D01*
G01X14297Y27319D01*
G01X14297Y26650D01*
G01X14097Y26650D01*
G37*
G36*
G01X14293Y26650D02*
G01X14293Y27319D01*
G01X14493Y27319D01*
G01X14493Y26650D01*
G01X14293Y26650D01*
G37*
G36*
G01X3525Y22025D02*
G01X3525Y22775D01*
G01X4275Y22775D01*
G01X4275Y22025D01*
G01X3525Y22025D01*
G37*
G54D72*
G01X3900Y23400D03*
G01X3900Y24400D03*
G01X3900Y25400D03*
G01X3900Y26400D03*
G36*
G01X17018Y9115D02*
G01X17018Y9984D01*
G01X18081Y9984D01*
G01X18081Y9115D01*
G01X17018Y9115D01*
G37*
G54D74*
G01X23500Y19400D03*
G54D75*
G01X23500Y20400D03*
G01X23500Y21400D03*
G01X23500Y22400D03*
G01X23500Y23400D03*
G01X23500Y24400D03*
G01X23500Y25400D03*
G01X23500Y26400D03*
G01X23500Y27400D03*
G01X23500Y28400D03*
G01X23500Y29400D03*
G01X23500Y30400D03*
G01X23500Y31400D03*
G01X23500Y32400D03*
G01X23500Y33400D03*
G01X23500Y34400D03*
G54D76*
G01X9650Y21350D03*
G01X9650Y22350D03*
G01X11650Y21300D03*
G01X11650Y22300D03*
G01X15150Y29150D03*
G01X16150Y29150D03*
G36*
G01X13981Y30225D02*
G01X13981Y30875D01*
G01X14518Y30875D01*
G01X14518Y30225D01*
G01X13981Y30225D01*
G37*
G36*
G01X14781Y30225D02*
G01X14781Y30875D01*
G01X15318Y30875D01*
G01X15318Y30225D01*
G01X14781Y30225D01*
G37*
G36*
G01X15781Y30225D02*
G01X15781Y30875D01*
G01X16318Y30875D01*
G01X16318Y30225D01*
G01X15781Y30225D01*
G37*
G36*
G01X16581Y30225D02*
G01X16581Y30875D01*
G01X17118Y30875D01*
G01X17118Y30225D01*
G01X16581Y30225D01*
G37*
G36*
G01X17131Y19525D02*
G01X17131Y20175D01*
G01X17668Y20175D01*
G01X17668Y19525D01*
G01X17131Y19525D01*
G37*
G36*
G01X16331Y19525D02*
G01X16331Y20175D01*
G01X16868Y20175D01*
G01X16868Y19525D01*
G01X16331Y19525D01*
G37*
G36*
G01X13231Y24525D02*
G01X13231Y25175D01*
G01X13768Y25175D01*
G01X13768Y24525D01*
G01X13231Y24525D01*
G37*
G36*
G01X14031Y24525D02*
G01X14031Y25175D01*
G01X14568Y25175D01*
G01X14568Y24525D01*
G01X14031Y24525D01*
G37*
G36*
G01X7443Y23709D02*
G01X7443Y24182D01*
G01X7956Y24182D01*
G01X7956Y23709D01*
G01X7443Y23709D01*
G37*
G36*
G01X7443Y24417D02*
G01X7443Y24890D01*
G01X7956Y24890D01*
G01X7956Y24417D01*
G01X7443Y24417D01*
G37*
G36*
G01X6059Y29942D02*
G01X6059Y30457D01*
G01X6532Y30457D01*
G01X6532Y29942D01*
G01X6059Y29942D01*
G37*
G36*
G01X6768Y29942D02*
G01X6768Y30457D01*
G01X7240Y30457D01*
G01X7240Y29942D01*
G01X6768Y29942D01*
G37*
G36*
G01X5109Y23742D02*
G01X5109Y24257D01*
G01X5582Y24257D01*
G01X5582Y23742D01*
G01X5109Y23742D01*
G37*
G36*
G01X5818Y23742D02*
G01X5818Y24257D01*
G01X6290Y24257D01*
G01X6290Y23742D01*
G01X5818Y23742D01*
G37*
G36*
G01X15631Y24525D02*
G01X15631Y25175D01*
G01X16168Y25175D01*
G01X16168Y24525D01*
G01X15631Y24525D01*
G37*
G36*
G01X14831Y24525D02*
G01X14831Y25175D01*
G01X15368Y25175D01*
G01X15368Y24525D01*
G01X14831Y24525D01*
G37*
G36*
G01X11652Y28317D02*
G01X11652Y29382D01*
G01X12521Y29382D01*
G01X12521Y28317D01*
G01X11652Y28317D01*
G37*
G36*
G01X10078Y26317D02*
G01X10078Y27382D01*
G01X10947Y27382D01*
G01X10947Y26317D01*
G01X10078Y26317D01*
G37*
G36*
G01X11652Y26317D02*
G01X11652Y27382D01*
G01X12521Y27382D01*
G01X12521Y26317D01*
G01X11652Y26317D01*
G37*
G36*
G01X10078Y28317D02*
G01X10078Y29382D01*
G01X10947Y29382D01*
G01X10947Y28317D01*
G01X10078Y28317D01*
G37*
G36*
G01X14943Y27438D02*
G01X14943Y27911D01*
G01X15456Y27911D01*
G01X15456Y27438D01*
G01X14943Y27438D01*
G37*
G36*
G01X14943Y27988D02*
G01X14943Y28461D01*
G01X15456Y28461D01*
G01X15456Y27988D01*
G01X14943Y27988D01*
G37*
G36*
G01X11118Y30055D02*
G01X11118Y30744D01*
G01X11593Y30744D01*
G01X11593Y30055D01*
G01X11118Y30055D01*
G37*
G36*
G01X11906Y30055D02*
G01X11906Y30744D01*
G01X12381Y30744D01*
G01X12381Y30055D01*
G01X11906Y30055D01*
G37*
G36*
G01X15793Y27438D02*
G01X15793Y27911D01*
G01X16306Y27911D01*
G01X16306Y27438D01*
G01X15793Y27438D01*
G37*
G36*
G01X15793Y27988D02*
G01X15793Y28461D01*
G01X16306Y28461D01*
G01X16306Y27988D01*
G01X15793Y27988D01*
G37*
G36*
G01X18735Y22386D02*
G01X18735Y23213D01*
G01X19564Y23213D01*
G01X19564Y22386D01*
G01X18735Y22386D01*
G37*
G54D79*
G01X19150Y21800D03*
G54D62*
G01X14100Y4100D03*
G01X5400Y4100D03*
G54D80*
G01X7450Y11750D03*
G01X5450Y11750D03*
G01X13950Y11700D03*
G01X11950Y11700D03*
G54D81*
G01X12100Y17900D03*
G01X13100Y17900D03*
G01X7300Y17900D03*
G01X6300Y17900D03*
G01X21100Y7500D03*
G01X21100Y8500D03*
G54D82*
G01X17895Y18250D03*
G01X17304Y18250D03*
G01X7800Y20704D03*
G01X7800Y21295D03*
G36*
G01X14356Y7815D02*
G01X14356Y8684D01*
G01X15222Y8684D01*
G01X15222Y7815D01*
G01X14356Y7815D01*
G37*
G54D58*
G01X10773Y8250D03*
G01X7742Y8250D03*
G01X4710Y8250D03*
G54D67*
G01X13200Y22400D03*
G01X13200Y21400D03*
G36*
G01X12806Y20050D02*
G01X12806Y20750D01*
G01X13593Y20750D01*
G01X13593Y20050D01*
G01X12806Y20050D01*
G37*
G36*
G01X10565Y32265D02*
G01X10565Y33134D01*
G01X11434Y33134D01*
G01X11434Y32265D01*
G01X10565Y32265D01*
G37*
G54D58*
G01X12000Y32700D03*
G54D85*
G01X14600Y20850D03*
G01X15600Y20850D03*
G01X16600Y20850D03*
G01X17600Y20850D03*
G01X14600Y23850D03*
G01X15600Y23850D03*
G01X16600Y23850D03*
G36*
G01X17264Y23515D02*
G01X17264Y24184D01*
G01X17935Y24184D01*
G01X17935Y23515D01*
G01X17264Y23515D01*
G37*
G36*
G01X9305Y23765D02*
G01X9305Y24434D01*
G01X9975Y24434D01*
G01X9975Y23765D01*
G01X9305Y23765D01*
G37*
G01X11560Y24100D03*
M00*
M02*
